# xmcd
#
# Track frame offsets:
#	150
#	17310
#	39837
#	57035
#	77335
#	95340
#	114715
#	135795
#	154665
#	172362
#	187850
#	204657
#
# Disc length: 2955 seconds
#
# Revision: 1
# Processed by: cddbd v1.5.2PL0 Copyright (c) Steve Scherf et al.
# Submitted via: audiograbber 1.83.01
#
DISCID=850b890c
DTITLE=Stewart, Rod - Human
DYEAR=2001
DGENRE=Pop
TTITLE0=Human
TTITLE1=Smitten
TTITLE2=Don't Come Around Here (with Helicopter Girl)
TTITLE3=Soul On Soul
TTITLE4=Loveless
TTITLE5=If I had You
TTITLE6=Charlie Parker Loves Me
TTITLE7=It Was Love That We Needed
TTITLE8=To Be With You
TTITLE9=Run Back In Your Arms
TTITLE10=I Can't Deny It
TTITLE11=Peach
EXTD=
EXTT0=
EXTT1=
EXTT2=
EXTT3=
EXTT4=
EXTT5=
EXTT6=
EXTT7=
EXTT8=
EXTT9=
EXTT10=
EXTT11=
PLAYORDER=
